<svg
        xmlns="http://www.w3.org/2000/svg"
        overflow="visible"
        viewBox="0 0 341.59 203.057"
>
  <switch>
    <g>
      <g>
        <g>
          <path fill="#FFF" d="M0.063 0H341.533V202.17H0.063z"></path>
          <g>
            <g>
              <path
                      fill="#13135F"
                      d="M0.063 20L0.063 76.5 96.063 76.5z"
              ></path>
            </g>
            <path
                    fill="red"
                    d="M109.91 76.5L129.56 76.5 0.063 0 0.063 12z"
            ></path>
            <g>
              <path
                      fill="#12145B"
                      d="M37.916 0L147.56 67.486 147.56 0z"
              ></path>
            </g>
          </g>
          <g>
            <path
                    fill="#13135F"
                    d="M341.56 182L341.56 126 246.56 126z"
            ></path>
          </g>
          <path
                  fill="red"
                  d="M232.72 126L213.06 126 341.56 202.12 341.56 190z"
          ></path>
          <g>
            <path
                    fill="#12145B"
                    d="M304.68 203L195.04 135.51 195.04 203z"
            ></path>
          </g>
          <g>
            <path
                    fill="#13135F"
                    d="M341.56 20.513L341.56 76.5 246.56 76.432z"
            ></path>
          </g>
          <path
                  fill="red"
                  d="M195.06 76.5L217.36 76.5 341.56 0 319.01 0z"
          ></path>
          <g>
            <path
                    fill="#12145B"
                    d="M303.75 0L195.06 66.986 195.06 0z"
            ></path>
          </g>
          <g>
            <path
                    fill="#13135F"
                    d="M0.071 182.48L0.071 125.98 96.071 125.98z"
            ></path>
          </g>
          <path
                  fill="red"
                  d="M147.52 125.97L125.22 125.97 0 203.06 22.572 203.06z"
          ></path>
          <g>
            <path
                    fill="#12145B"
                    d="M37.87 202.97L147.52 135.48 147.52 202.97z"
            ></path>
          </g>
          <path fill="red" d="M156.72 0H185.594V203H156.72z"></path>
          <path
                  fill="red"
                  d="M0.063 85.252H341.59299999999996V117.92399999999999H0.063z"
          ></path>
        </g>
      </g>
    </g>
  </switch>
</svg>