<svg xmlns="http://www.w3.org/2000/svg" version="1" viewBox="0 0 380 200">
  <g>
    <path fill="none" stroke="#000" d="M0 1H379V200H0z"></path>
  </g>
  <g fillRule="evenodd">
    <path fill="#bf0a30" d="M0 184H379V200H0z"></path>
    <path fill="#fff" d="M0 168H379V184H0z"></path>
    <path fill="#bf0a30" d="M0 152H379V168H0z"></path>
    <path fill="#fff" d="M0 136H379V152H0z"></path>
    <path fill="#bf0a30" d="M0 121H379V136H0z"></path>
    <path fill="#fff" d="M0 106H379V121H0z"></path>
    <path fill="#bf0a30" d="M0 91H379V106H0z"></path>
    <path fill="#fff" d="M0 76H379V91H0z"></path>
    <path fill="#bf0a30" d="M0 61H379V76H0z"></path>
    <path fill="#fff" d="M0 46H379V61H0z"></path>
    <path fill="#bf0a30" d="M0 31H379V46H0z"></path>
    <path fill="#fff" d="M0 16H379V31H0z"></path>
    <path fill="#bf0a30" d="M0 1H379V16H0z"></path>
  </g>
  <g>
    <path fill="#002868" fillRule="evenodd" d="M0 1H152V106H0z"></path>
  </g>
  <g fill="#fff" fillRule="evenodd">
    <path
            d="M100.33 146.67l4.14-.78 1.28-4.01 2.01 3.7 4.21-.03-2.89 3.06 1.32 4-3.8-1.81-3.39 2.49.55-4.17-3.43-2.45z"
            transform="matrix(1.0487 .08995 -.08593 1.0977 -86.263 -76.411)"
    ></path>
    <path
            d="M100.33 146.67l4.14-.78 1.28-4.01 2.01 3.7 4.21-.03-2.89 3.06 1.32 4-3.8-1.81-3.39 2.49.55-4.17-3.43-2.45z"
            transform="matrix(1.0487 .08995 -.08593 1.0977 -61.263 -76.411)"
    ></path>
    <path
            d="M100.33 146.67l4.14-.78 1.28-4.01 2.01 3.7 4.21-.03-2.89 3.06 1.32 4-3.8-1.81-3.39 2.49.55-4.17-3.43-2.45z"
            transform="matrix(1.0487 .08995 -.08593 1.0977 -35.263 -76.411)"
    ></path>
    <path
            d="M100.33 146.67l4.14-.78 1.28-4.01 2.01 3.7 4.21-.03-2.89 3.06 1.32 4-3.8-1.81-3.39 2.49.55-4.17-3.43-2.45z"
            transform="matrix(1.0487 .08995 -.08593 1.0977 -10.263 -76.411)"
    ></path>
    <path
            d="M100.33 146.67l4.14-.78 1.28-4.01 2.01 3.7 4.21-.03-2.89 3.06 1.32 4-3.8-1.81-3.39 2.49.55-4.17-3.43-2.45z"
            transform="matrix(1.0487 .08995 -.08593 1.0977 14.737 -76.411)"
    ></path>
    <path
            d="M100.33 146.67l4.14-.78 1.28-4.01 2.01 3.7 4.21-.03-2.89 3.06 1.32 4-3.8-1.81-3.39 2.49.55-4.17-3.43-2.45z"
            transform="matrix(1.0487 .08995 -.08593 1.0977 40.737 -76.411)"
    ></path>
    <path
            d="M100.33 146.67l4.14-.78 1.28-4.01 2.01 3.7 4.21-.03-2.89 3.06 1.32 4-3.8-1.81-3.39 2.49.55-4.17-3.43-2.45z"
            transform="matrix(1.0487 .08995 -.08593 1.0977 -73.263 -86.411)"
    ></path>
    <path
            d="M100.33 146.67l4.14-.78 1.28-4.01 2.01 3.7 4.21-.03-2.89 3.06 1.32 4-3.8-1.81-3.39 2.49.55-4.17-3.43-2.45z"
            transform="matrix(1.0487 .08995 -.08593 1.0977 -86.263 -97.411)"
    ></path>
    <path
            d="M100.33 146.67l4.14-.78 1.28-4.01 2.01 3.7 4.21-.03-2.89 3.06 1.32 4-3.8-1.81-3.39 2.49.55-4.17-3.43-2.45z"
            transform="matrix(1.0487 .08995 -.08593 1.0977 -73.263 -107.41)"
    ></path>
    <path
            d="M100.33 146.67l4.14-.78 1.28-4.01 2.01 3.7 4.21-.03-2.89 3.06 1.32 4-3.8-1.81-3.39 2.49.55-4.17-3.43-2.45z"
            transform="matrix(1.0487 .08995 -.08593 1.0977 -86.263 -118.41)"
    ></path>
    <path
            d="M100.33 146.67l4.14-.78 1.28-4.01 2.01 3.7 4.21-.03-2.89 3.06 1.32 4-3.8-1.81-3.39 2.49.55-4.17-3.43-2.45z"
            transform="matrix(1.0487 .08995 -.08593 1.0977 -73.263 -128.41)"
    ></path>
    <path
            d="M100.33 146.67l4.14-.78 1.28-4.01 2.01 3.7 4.21-.03-2.89 3.06 1.32 4-3.8-1.81-3.39 2.49.55-4.17-3.43-2.45z"
            transform="matrix(1.0487 .08995 -.08593 1.0977 -86.263 -139.41)"
    ></path>
    <path
            d="M100.33 146.67l4.14-.78 1.28-4.01 2.01 3.7 4.21-.03-2.89 3.06 1.32 4-3.8-1.81-3.39 2.49.55-4.17-3.43-2.45z"
            transform="matrix(1.0487 .08995 -.08593 1.0977 -73.263 -149.41)"
    ></path>
    <path
            d="M100.33 146.67l4.14-.78 1.28-4.01 2.01 3.7 4.21-.03-2.89 3.06 1.32 4-3.8-1.81-3.39 2.49.55-4.17-3.43-2.45z"
            transform="matrix(1.0487 .08995 -.08593 1.0977 -86.263 -160.41)"
    ></path>
    <path
            d="M100.33 146.67l4.14-.78 1.28-4.01 2.01 3.7 4.21-.03-2.89 3.06 1.32 4-3.8-1.81-3.39 2.49.55-4.17-3.43-2.45z"
            transform="matrix(1.0487 .08995 -.08593 1.0977 -48.263 -86.411)"
    ></path>
    <path
            d="M100.33 146.67l4.14-.78 1.28-4.01 2.01 3.7 4.21-.03-2.89 3.06 1.32 4-3.8-1.81-3.39 2.49.55-4.17-3.43-2.45z"
            transform="matrix(1.0487 .08995 -.08593 1.0977 -61.263 -97.411)"
    ></path>
    <path
            d="M100.33 146.67l4.14-.78 1.28-4.01 2.01 3.7 4.21-.03-2.89 3.06 1.32 4-3.8-1.81-3.39 2.49.55-4.17-3.43-2.45z"
            transform="matrix(1.0487 .08995 -.08593 1.0977 -48.263 -107.41)"
    ></path>
    <path
            d="M100.33 146.67l4.14-.78 1.28-4.01 2.01 3.7 4.21-.03-2.89 3.06 1.32 4-3.8-1.81-3.39 2.49.55-4.17-3.43-2.45z"
            transform="matrix(1.0487 .08995 -.08593 1.0977 -61.263 -118.41)"
    ></path>
    <path
            d="M100.33 146.67l4.14-.78 1.28-4.01 2.01 3.7 4.21-.03-2.89 3.06 1.32 4-3.8-1.81-3.39 2.49.55-4.17-3.43-2.45z"
            transform="matrix(1.0487 .08995 -.08593 1.0977 -48.263 -128.41)"
    ></path>
    <path
            d="M100.33 146.67l4.14-.78 1.28-4.01 2.01 3.7 4.21-.03-2.89 3.06 1.32 4-3.8-1.81-3.39 2.49.55-4.17-3.43-2.45z"
            transform="matrix(1.0487 .08995 -.08593 1.0977 -61.263 -139.41)"
    ></path>
    <path
            d="M100.33 146.67l4.14-.78 1.28-4.01 2.01 3.7 4.21-.03-2.89 3.06 1.32 4-3.8-1.81-3.39 2.49.55-4.17-3.43-2.45z"
            transform="matrix(1.0487 .08995 -.08593 1.0977 -48.263 -149.41)"
    ></path>
    <path
            d="M100.33 146.67l4.14-.78 1.28-4.01 2.01 3.7 4.21-.03-2.89 3.06 1.32 4-3.8-1.81-3.39 2.49.55-4.17-3.43-2.45z"
            transform="matrix(1.0487 .08995 -.08593 1.0977 -61.263 -160.41)"
    ></path>
    <path
            d="M100.33 146.67l4.14-.78 1.28-4.01 2.01 3.7 4.21-.03-2.89 3.06 1.32 4-3.8-1.81-3.39 2.49.55-4.17-3.43-2.45z"
            transform="matrix(1.0487 .08995 -.08593 1.0977 -23.263 -86.411)"
    ></path>
    <path
            d="M100.33 146.67l4.14-.78 1.28-4.01 2.01 3.7 4.21-.03-2.89 3.06 1.32 4-3.8-1.81-3.39 2.49.55-4.17-3.43-2.45z"
            transform="matrix(1.0487 .08995 -.08593 1.0977 -35.263 -97.411)"
    ></path>
    <path
            d="M100.33 146.67l4.14-.78 1.28-4.01 2.01 3.7 4.21-.03-2.89 3.06 1.32 4-3.8-1.81-3.39 2.49.55-4.17-3.43-2.45z"
            transform="matrix(1.0487 .08995 -.08593 1.0977 14.737 -97.411)"
    ></path>
    <path
            d="M100.33 146.67l4.14-.78 1.28-4.01 2.01 3.7 4.21-.03-2.89 3.06 1.32 4-3.8-1.81-3.39 2.49.55-4.17-3.43-2.45z"
            transform="matrix(1.0487 .08995 -.08593 1.0977 -10.263 -97.411)"
    ></path>
    <path
            d="M100.33 146.67l4.14-.78 1.28-4.01 2.01 3.7 4.21-.03-2.89 3.06 1.32 4-3.8-1.81-3.39 2.49.55-4.17-3.43-2.45z"
            transform="matrix(1.0487 .08995 -.08593 1.0977 27.737 -86.411)"
    ></path>
    <path
            d="M100.33 146.67l4.14-.78 1.28-4.01 2.01 3.7 4.21-.03-2.89 3.06 1.32 4-3.8-1.81-3.39 2.49.55-4.17-3.43-2.45z"
            transform="matrix(1.0487 .08995 -.08593 1.0977 2.737 -86.411)"
    ></path>
    <path
            d="M100.33 146.67l4.14-.78 1.28-4.01 2.01 3.7 4.21-.03-2.89 3.06 1.32 4-3.8-1.81-3.39 2.49.55-4.17-3.43-2.45z"
            transform="matrix(1.0487 .08995 -.08593 1.0977 -35.263 -160.41)"
    ></path>
    <path
            d="M100.33 146.67l4.14-.78 1.28-4.01 2.01 3.7 4.21-.03-2.89 3.06 1.32 4-3.8-1.81-3.39 2.49.55-4.17-3.43-2.45z"
            transform="matrix(1.0487 .08995 -.08593 1.0977 -23.263 -149.41)"
    ></path>
    <path
            d="M100.33 146.67l4.14-.78 1.28-4.01 2.01 3.7 4.21-.03-2.89 3.06 1.32 4-3.8-1.81-3.39 2.49.55-4.17-3.43-2.45z"
            transform="matrix(1.0487 .08995 -.08593 1.0977 -35.263 -139.41)"
    ></path>
    <path
            d="M100.33 146.67l4.14-.78 1.28-4.01 2.01 3.7 4.21-.03-2.89 3.06 1.32 4-3.8-1.81-3.39 2.49.55-4.17-3.43-2.45z"
            transform="matrix(1.0487 .08995 -.08593 1.0977 -23.263 -128.41)"
    ></path>
    <path
            d="M100.33 146.67l4.14-.78 1.28-4.01 2.01 3.7 4.21-.03-2.89 3.06 1.32 4-3.8-1.81-3.39 2.49.55-4.17-3.43-2.45z"
            transform="matrix(1.0487 .08995 -.08593 1.0977 -35.263 -118.41)"
    ></path>
    <path
            d="M100.33 146.67l4.14-.78 1.28-4.01 2.01 3.7 4.21-.03-2.89 3.06 1.32 4-3.8-1.81-3.39 2.49.55-4.17-3.43-2.45z"
            transform="matrix(1.0487 .08995 -.08593 1.0977 -23.263 -107.41)"
    ></path>
    <path
            d="M100.33 146.67l4.14-.78 1.28-4.01 2.01 3.7 4.21-.03-2.89 3.06 1.32 4-3.8-1.81-3.39 2.49.55-4.17-3.43-2.45z"
            transform="matrix(1.0487 .08995 -.08593 1.0977 40.737 -97.411)"
    ></path>
    <path
            d="M100.33 146.67l4.14-.78 1.28-4.01 2.01 3.7 4.21-.03-2.89 3.06 1.32 4-3.8-1.81-3.39 2.49.55-4.17-3.43-2.45z"
            transform="matrix(1.0487 .08995 -.08593 1.0977 -10.263 -118.41)"
    ></path>
    <path
            d="M100.33 146.67l4.14-.78 1.28-4.01 2.01 3.7 4.21-.03-2.89 3.06 1.32 4-3.8-1.81-3.39 2.49.55-4.17-3.43-2.45z"
            transform="matrix(1.0487 .08995 -.08593 1.0977 -10.263 -160.41)"
    ></path>
    <path
            d="M100.33 146.67l4.14-.78 1.28-4.01 2.01 3.7 4.21-.03-2.89 3.06 1.32 4-3.8-1.81-3.39 2.49.55-4.17-3.43-2.45z"
            transform="matrix(1.0487 .08995 -.08593 1.0977 -10.263 -139.41)"
    ></path>
    <path
            d="M100.33 146.67l4.14-.78 1.28-4.01 2.01 3.7 4.21-.03-2.89 3.06 1.32 4-3.8-1.81-3.39 2.49.55-4.17-3.43-2.45z"
            transform="matrix(1.0487 .08995 -.08593 1.0977 27.737 -107.41)"
    ></path>
    <path
            d="M100.33 146.67l4.14-.78 1.28-4.01 2.01 3.7 4.21-.03-2.89 3.06 1.32 4-3.8-1.81-3.39 2.49.55-4.17-3.43-2.45z"
            transform="matrix(1.0487 .08995 -.08593 1.0977 2.737 -107.41)"
    ></path>
    <path
            d="M100.33 146.67l4.14-.78 1.28-4.01 2.01 3.7 4.21-.03-2.89 3.06 1.32 4-3.8-1.81-3.39 2.49.55-4.17-3.43-2.45z"
            transform="matrix(1.0487 .08995 -.08593 1.0977 2.737 -149.41)"
    ></path>
    <path
            d="M100.33 146.67l4.14-.78 1.28-4.01 2.01 3.7 4.21-.03-2.89 3.06 1.32 4-3.8-1.81-3.39 2.49.55-4.17-3.43-2.45z"
            transform="matrix(1.0487 .08995 -.08593 1.0977 2.737 -128.41)"
    ></path>
    <path
            d="M100.33 146.67l4.14-.78 1.28-4.01 2.01 3.7 4.21-.03-2.89 3.06 1.32 4-3.8-1.81-3.39 2.49.55-4.17-3.43-2.45z"
            transform="matrix(1.0487 .08995 -.08593 1.0977 40.737 -118.41)"
    ></path>
    <path
            d="M100.33 146.67l4.14-.78 1.28-4.01 2.01 3.7 4.21-.03-2.89 3.06 1.32 4-3.8-1.81-3.39 2.49.55-4.17-3.43-2.45z"
            transform="matrix(1.0487 .08995 -.08593 1.0977 14.737 -118.41)"
    ></path>
    <path
            d="M100.33 146.67l4.14-.78 1.28-4.01 2.01 3.7 4.21-.03-2.89 3.06 1.32 4-3.8-1.81-3.39 2.49.55-4.17-3.43-2.45z"
            transform="matrix(1.0487 .08995 -.08593 1.0977 14.737 -160.41)"
    ></path>
    <path
            d="M100.33 146.67l4.14-.78 1.28-4.01 2.01 3.7 4.21-.03-2.89 3.06 1.32 4-3.8-1.81-3.39 2.49.55-4.17-3.43-2.45z"
            transform="matrix(1.0487 .08995 -.08593 1.0977 14.737 -139.41)"
    ></path>
    <path
            d="M100.33 146.67l4.14-.78 1.28-4.01 2.01 3.7 4.21-.03-2.89 3.06 1.32 4-3.8-1.81-3.39 2.49.55-4.17-3.43-2.45z"
            transform="matrix(1.0487 .08995 -.08593 1.0977 40.737 -160.41)"
    ></path>
    <path
            d="M100.33 146.67l4.14-.78 1.28-4.01 2.01 3.7 4.21-.03-2.89 3.06 1.32 4-3.8-1.81-3.39 2.49.55-4.17-3.43-2.45z"
            transform="matrix(1.0487 .08995 -.08593 1.0977 27.737 -149.41)"
    ></path>
    <path
            d="M100.33 146.67l4.14-.78 1.28-4.01 2.01 3.7 4.21-.03-2.89 3.06 1.32 4-3.8-1.81-3.39 2.49.55-4.17-3.43-2.45z"
            transform="matrix(1.0487 .08995 -.08593 1.0977 40.737 -139.41)"
    ></path>
    <path
            d="M100.33 146.67l4.14-.78 1.28-4.01 2.01 3.7 4.21-.03-2.89 3.06 1.32 4-3.8-1.81-3.39 2.49.55-4.17-3.43-2.45z"
            transform="matrix(1.0487 .08995 -.08593 1.0977 27.737 -128.41)"
    ></path>
  </g>
</svg>